<svg width="24" height="24" viewBox="0 0 24 24" fill="none" xmlns="http://www.w3.org/2000/svg">
  <path d="M12 2C6.47715 2 2 6.47715 2 12C2 17.5228 6.47715 22 12 22C17.5228 22 22 17.5228 22 12C22 6.47715 17.5228 2 12 2Z" stroke="#00D4AA" stroke-width="1.5" stroke-linecap="round" stroke-linejoin="round"/>
  <path d="M8 12C8 9.79086 9.79086 8 12 8C14.2091 8 16 9.79086 16 12C16 14.2091 14.2091 16 12 16" stroke="#6C63FF" stroke-width="1.5" stroke-linecap="round" stroke-linejoin="round"/>
  <path d="M12 16V19" stroke="#6C63FF" stroke-width="1.5" stroke-linecap="round" stroke-linejoin="round"/>
  <path d="M9 19L15 19" stroke="#6C63FF" stroke-width="1.5" stroke-linecap="round" stroke-linejoin="round"/>
  <path d="M7 14L9 11L11 13L13 10L17 14" stroke="#00D4AA" stroke-width="1.5" stroke-linecap="round" stroke-linejoin="round"/>
</svg>
